<?xml version="1.0" encoding="utf-8"?>
<!-- Generator: Adobe Illustrator 24.0.1, SVG Export Plug-In . SVG Version: 6.00 Build 0)  -->
<svg version="1.1" id="Layer_1" xmlns="http://www.w3.org/2000/svg" xmlns:xlink="http://www.w3.org/1999/xlink" x="0px" y="0px"
	 viewBox="0 0 18 18" style="enable-background:new 0 0 18 18;" xml:space="preserve">
<path d="M13.1,0H4.9C2.2,0,0,2.2,0,4.9v8.3C0,15.8,2.2,18,4.9,18h8.3c2.7,0,4.9-2.2,4.9-4.9V4.9C18,2.2,15.8,0,13.1,0z M9,13.9
	c-2.7,0-4.9-2.2-4.9-4.9S6.3,4.1,9,4.1s4.9,2.2,4.9,4.9S11.7,13.9,9,13.9z M14,5.2c-0.8,0-1.5-0.7-1.5-1.5s0.7-1.5,1.5-1.5
	s1.5,0.7,1.5,1.5S14.8,5.2,14,5.2z"/>
<path d="M9,5.1C6.9,5.1,5.1,6.9,5.1,9c0,2.1,1.7,3.9,3.9,3.9c2.1,0,3.9-1.7,3.9-3.9C12.9,6.9,11.1,5.1,9,5.1z"/>
<path d="M14,3.4c-0.2,0-0.4,0.2-0.4,0.4c0,0.2,0.2,0.4,0.4,0.4c0.2,0,0.4-0.2,0.4-0.4C14.4,3.6,14.3,3.4,14,3.4z"/>
</svg>
