<?xml version="1.0" encoding="utf-8"?>
<!-- Generator: Adobe Illustrator 24.0.1, SVG Export Plug-In . SVG Version: 6.00 Build 0)  -->
<svg version="1.1" id="Layer_1" xmlns="http://www.w3.org/2000/svg" xmlns:xlink="http://www.w3.org/1999/xlink" x="0px" y="0px"
	 viewBox="0 0 18 18" style="enable-background:new 0 0 18 18;" xml:space="preserve">
<path d="M17.8,3.4c-0.6,0.3-1.3,0.5-2,0.6c0.7-0.5,1.3-1.2,1.6-2c-0.7,0.4-1.4,0.7-2.2,0.9c-0.6-0.7-1.6-1.1-2.6-1.1
	c-2,0-3.5,1.6-3.5,3.6c0,0.3,0,0.6,0.1,0.8C6.1,6,3.5,4.6,1.8,2.4C1.5,2.9,1.3,3.5,1.3,4.2c0,1.3,0.6,2.4,1.6,3
	c-0.6,0-1.1-0.2-1.6-0.5c0,0,0,0,0,0c0,1.8,1.2,3.2,2.8,3.6c-0.3,0.1-0.6,0.1-0.9,0.1c-0.2,0-0.4,0-0.7-0.1C3,11.9,4.3,13,5.8,13
	c-1.2,1-2.7,1.6-4.4,1.6c-0.3,0-0.6,0-0.8-0.1c1.6,1,3.4,1.6,5.4,1.6c6.5,0,10.1-5.5,10.1-10.4c0-0.2,0-0.3,0-0.5
	C16.7,4.8,17.3,4.2,17.8,3.4z"/>
</svg>
