<?xml version="1.0" encoding="utf-8"?>
<!-- Generator: Adobe Illustrator 24.0.1, SVG Export Plug-In . SVG Version: 6.00 Build 0)  -->
<svg version="1.1" id="Layer_1" xmlns="http://www.w3.org/2000/svg" xmlns:xlink="http://www.w3.org/1999/xlink" x="0px" y="0px"
	 viewBox="0 0 19 18" style="enable-background:new 0 0 19 18;" xml:space="preserve">
<path d="M14.8,8.7H3.6c-1.8,0-3.2,1.4-3.2,3.2v2.6c0,1.8,1.4,3.2,3.2,3.2h11.2c1.8,0,3.2-1.4,3.2-3.2V12C18,10.2,16.6,8.7,14.8,8.7z
	 M6,10.8h-1v5.2h-1v-5.2h-1V9.9H6V10.8z M8.9,15.9H8v-0.5c-0.2,0.2-0.3,0.3-0.5,0.4C7.3,16,7.1,16,7,16c-0.2,0-0.4-0.1-0.5-0.2
	c-0.1-0.1-0.2-0.3-0.2-0.6v-3.7h0.9v3.4c0,0.1,0,0.2,0.1,0.2c0,0,0.1,0.1,0.2,0.1c0.1,0,0.1,0,0.2-0.1C7.8,15,7.9,15,8,14.9v-3.4
	h0.9V15.9z M12.1,15c0,0.3-0.1,0.6-0.2,0.7c-0.1,0.2-0.3,0.3-0.6,0.3c-0.2,0-0.3,0-0.5-0.1c-0.1-0.1-0.3-0.2-0.4-0.3v0.3H9.6V9.9
	h0.9v2c0.1-0.1,0.2-0.2,0.4-0.3c0.1-0.1,0.3-0.1,0.4-0.1c0.3,0,0.5,0.1,0.6,0.3c0.1,0.2,0.2,0.5,0.2,0.8L12.1,15L12.1,15z
	 M15.2,13.8h-1.7v0.8c0,0.2,0,0.4,0.1,0.5c0.1,0.1,0.2,0.1,0.3,0.1c0.1,0,0.3,0,0.3-0.1c0.1-0.1,0.1-0.2,0.1-0.5v-0.2h0.9v0.2
	c0,0.5-0.1,0.8-0.3,1c-0.2,0.2-0.6,0.3-1,0.3c-0.4,0-0.7-0.1-0.9-0.4c-0.2-0.2-0.3-0.6-0.3-1v-2c0-0.4,0.1-0.7,0.4-0.9
	c0.3-0.2,0.6-0.4,1-0.4c0.4,0,0.7,0.1,0.9,0.3c0.2,0.2,0.3,0.6,0.3,1V13.8z"/>
<path d="M13.9,12.1c-0.1,0-0.2,0-0.3,0.1c-0.1,0.1-0.1,0.2-0.1,0.4v0.5h0.8v-0.5c0-0.2,0-0.3-0.1-0.4C14.2,12.2,14.1,12.1,13.9,12.1
	z"/>
<path d="M10.9,12.1c-0.1,0-0.1,0-0.2,0c-0.1,0-0.1,0.1-0.2,0.1v2.8c0.1,0.1,0.1,0.1,0.2,0.2c0.1,0,0.1,0,0.2,0c0.1,0,0.2,0,0.2-0.1
	c0.1-0.1,0.1-0.2,0.1-0.3v-2.3c0-0.2,0-0.3-0.1-0.3C11.1,12.2,11,12.1,10.9,12.1z"/>
<path d="M5.1,7.2h1.1V4.4l1.3-3.9H6.4L5.7,3.2H5.6L4.9,0.5H3.7l1.3,4V7.2z"/>
<path d="M9.1,7.3c0.5,0,0.8-0.1,1.1-0.4c0.3-0.2,0.4-0.6,0.4-1V3.4c0-0.4-0.1-0.7-0.4-0.9c-0.3-0.2-0.6-0.4-1-0.4
	C8.6,2.1,8.3,2.3,8,2.5C7.7,2.7,7.6,3,7.6,3.4v2.6c0,0.4,0.1,0.8,0.4,1C8.3,7.2,8.6,7.3,9.1,7.3z M8.6,3.4c0-0.1,0-0.2,0.1-0.3
	C8.8,3,8.9,3,9.1,3c0.1,0,0.2,0,0.3,0.1c0.1,0.1,0.1,0.2,0.1,0.3V6c0,0.1,0,0.2-0.1,0.3C9.3,6.4,9.2,6.5,9.1,6.5
	c-0.1,0-0.2,0-0.3-0.1C8.7,6.3,8.6,6.2,8.6,6L8.6,3.4L8.6,3.4z"/>
<path d="M12,7.3c0.2,0,0.4-0.1,0.6-0.2C12.8,7,13,6.8,13.2,6.6v0.5h1V2.3h-1V6c-0.1,0.1-0.2,0.2-0.3,0.3c-0.1,0.1-0.2,0.1-0.3,0.1
	c-0.1,0-0.2,0-0.2-0.1c0-0.1-0.1-0.1-0.1-0.3V2.3h-1v4.1c0,0.3,0.1,0.5,0.2,0.7C11.6,7.2,11.8,7.3,12,7.3z"/>
</svg>
