<?xml version="1.0" encoding="UTF-8" standalone="no"?>
<svg
   xmlns:dc="http://purl.org/dc/elements/1.1/"
   xmlns:cc="http://creativecommons.org/ns#"
   xmlns:rdf="http://www.w3.org/1999/02/22-rdf-syntax-ns#"
   xmlns:svg="http://www.w3.org/2000/svg"
   xmlns="http://www.w3.org/2000/svg"
   viewBox="0 0 406.73334 229.81332"
   height="229.81332"
   width="406.73334"
   xml:space="preserve"
   id="svg2"
   version="1.1"><metadata
     id="metadata8"><rdf:RDF><cc:Work
         rdf:about=""><dc:format>image/svg+xml</dc:format><dc:type
           rdf:resource="http://purl.org/dc/dcmitype/StillImage" /></cc:Work></rdf:RDF></metadata><defs
     id="defs6" /><g
     transform="matrix(1.3333333,0,0,-1.3333333,0,229.81333)"
     id="g10"><g
       transform="scale(0.1)"
       id="g12"><path
         id="path14"
         style="fill:#122336;fill-opacity:1;fill-rule:nonzero;stroke:none"
         d="m 1678.47,59.0391 c 0,-6.7696 -6.64,-10.1602 -19.91,-10.1602 h -37.1 c -13.27,0 -19.91,3.8399 -19.91,11.543 l -0.39,71.5471 c 0,7.691 6.76,11.551 20.3,11.551 h 37.1 c 13.27,0 19.91,-3.86 19.91,-11.551 z M 2423.28,12.8789 V 179.059 h -53.3 V 114.43 h -85.13 v 64.629 h -53.29 V 48.7188 l -144.09,0.1601 h -5.07 c -6.25,0 -10.41,0.6094 -12.5,1.8399 -3.65,2.1523 -5.46,6.3203 -5.46,12.4726 0,0 0.07,68.9686 0,72.9376 -0.11,5.652 8.5,7.5 14.05,7.391 5.56,-0.122 109.34,0 109.34,0 v 35.539 H 2069.9 c -24.99,0 -42.24,-2.688 -51.74,-8.059 -9.5,-5.398 -14.26,-15.328 -14.26,-29.789 0,0 0.09,-92.1212 0.11,-92.4922 h -45.37 v 32.9414 c 0,12.3007 -7.42,21.2308 -22.26,26.7808 -9.89,3.989 -21.34,5.989 -34.36,5.989 h -47.64 c -8.85,0.621 -13.92,3.082 -15.23,7.402 -0.26,0.297 -0.39,13.379 -0.39,13.379 0,4.918 4.42,7.527 13.28,7.859 l 106.6,0.45 v 35.539 h -123 c -30.21,0 -48.82,-8.149 -55.85,-24.457 -1.04,-2.762 -1.55,-5.551 -1.55,-8.313 v -35.078 c 0,-6.473 3.12,-12.4805 9.37,-18.0118 11.19,-9.8594 26.94,-14.7695 47.24,-14.7695 h 50.38 c 8.59,-0.6289 12.88,-3.2383 12.88,-7.8477 V 58.5703 c 0,-4.6094 -7.13,-9.4219 -14.06,-9.6914 -6.92,-0.2695 -145.45,-0.1601 -145.45,-0.1601 0,0.0625 0.01,0.1132 0.01,0.1601 V 143.52 c 0,23.699 -20.96,35.539 -62.86,35.539 h -71.47 c -34.89,0 -55.58,-8.911 -62.09,-26.77 -1.04,-3.07 -1.57,-6 -1.57,-8.769 l 0.4,-94.6411 h -81.71 c -10.16,0 -15.23,2.4609 -15.23,7.3906 V 179.059 h -56.91 V 53.5 c 0,-13.2383 4.87,-22.6992 14.05,-29.3203 15.39,-11.0781 52.59,-11.3008 56.24,-11.3008 h 827.4 v 0.082 h 0.01 v 35.7579 h -0.01 l -0.01,29.7109 h 85.13 V 12.8789 h 53.3" /><path
         id="path16"
         style="fill:#d47654;fill-opacity:1;fill-rule:nonzero;stroke:none"
         d="m 2765.54,1538.19 c 39.51,0 83.46,-4.19 83.46,-38.03 V 452.18 h 201.48 v 1062.21 c 0.45,78.17 -23.46,128.7 -77.03,166.77 -64.67,45.95 -308.86,42.21 -308.11,42.47 l -884.19,-0.41 0.23,-184.19 984.16,-0.84" /><path
         id="path18"
         style="fill:#d47654;fill-opacity:1;fill-rule:nonzero;stroke:none"
         d="m 284.93,185.422 c -39.492,0 -83.422,4.207 -83.422,38.008 V 1305.49 H 0.0078125 V 209.219 C -0.496094,131.051 23.4492,80.5313 77.043,42.4414 141.672,-3.5 385.879,0.261719 385.148,0 l 362.77,0.410156 0.039,184.191844 -463.027,0.82" /><path
         id="path20"
         style="fill:#122336;fill-opacity:1;fill-rule:nonzero;stroke:none"
         d="m 452.254,564.691 v 356.168 h 197.672 v -348.32 c 0,-13.98 16.578,-20.949 49.734,-20.949 h 349.43 l -1.27,-102.141 H 681.805 c -11.914,0 -22.953,0.43 -33.16,1.313 -69.719,2.617 -119.875,12.867 -150.485,30.769 -30.601,17.879 -45.906,45.61 -45.906,83.16" /><path
         id="path22"
         style="fill:#122336;fill-opacity:1;fill-rule:nonzero;stroke:none"
         d="m 1394.69,647.18 h 161.96 l -93.1,153.211 z m -327.76,-197.731 253.79,413.793 c 25.5,41.903 77.35,62.852 155.58,62.852 77.36,0 128.81,-20.949 154.31,-62.852 l 253.78,-413.793 h -206.58 l -62.5,102.141 h -279.29 l -62.49,-102.141 h -206.6" /><path
         id="path24"
         style="fill:#122336;fill-opacity:1;fill-rule:nonzero;stroke:none"
         d="M 2136.9,635.398 V 551.59 h 216.81 c 29.75,1.742 44.63,10.48 44.63,26.191 v 30.117 c 0,15.711 -16.15,24.872 -48.46,27.5 z m 0,184.629 v -82.5 h 218.08 c 30.6,1.75 45.92,10.032 45.92,24.887 v 31.422 c 0,8.723 -7.24,16.144 -21.68,22.266 -9.38,2.617 -17.44,3.925 -24.24,3.925 z m -197.66,100.832 h 474.4 c 90.97,0 147.94,-17.023 170.9,-51.074 7.65,-11.347 11.47,-29.687 11.47,-54.992 v -37.977 c 0,-45.402 -26.36,-75.515 -79.07,-90.355 54.41,-12.231 81.62,-40.16 81.62,-83.801 v -47.14 c 0,-70.719 -64.62,-106.071 -193.85,-106.071 h -465.47 v 471.41" /><path
         id="path26"
         style="fill:#122336;fill-opacity:1;fill-rule:nonzero;stroke:none"
         d="m 550.879,1112.78 h 99.269 c 10.821,0 17.891,0.45 21.227,1.36 6.656,2.25 10.613,7.68 11.863,16.26 0.41,0.44 0.625,1.57 0.625,3.38 v 106.35 c -2.918,7.67 -14.359,11.51 -34.34,11.51 h -98.644 z m -96.774,-52.83 v 243.85 h 229.758 c 64.516,0 96.774,-17.84 96.774,-53.51 v -136.83 c 0,-2.26 -0.418,-5.2 -1.25,-8.8 -6.66,-29.81 -37.254,-44.71 -91.778,-44.71 H 454.105" /><path
         id="path28"
         style="fill:#122336;fill-opacity:1;fill-rule:nonzero;stroke:none"
         d="m 851.809,1059.95 v 243.85 h 96.773 v -243.85 h -96.773" /><path
         id="path30"
         style="fill:#122336;fill-opacity:1;fill-rule:nonzero;stroke:none"
         d="m 1019.13,1129.04 v 114.48 c 0,22.57 8.11,38.27 24.35,47.07 16.23,8.8 44.95,13.21 86.16,13.21 h 182.31 v -52.16 h -178.57 c -9.98,-0.91 -15.82,-4.3 -17.48,-10.16 v -118.53 c 2.5,-5.88 9.37,-9.27 20.61,-10.17 h 76.79 c 18.73,0 28.92,3.61 30.59,10.85 v 76.53 h 96.78 v -77.89 c 0,-15.81 -2.92,-26.87 -8.74,-33.19 -16.65,-19.42 -46.83,-29.13 -90.54,-29.13 h -111.13 c -39.95,0 -69.3,5.42 -88.03,16.26 -10.83,6.32 -17.7,13.54 -20.61,21.67 -1.66,5.42 -2.49,15.8 -2.49,31.16" /><path
         id="path32"
         style="fill:#122336;fill-opacity:1;fill-rule:nonzero;stroke:none"
         d="m 1411.22,1059.95 v 243.85 h 96.77 v -243.85 h -96.77" /><path
         id="path34"
         style="fill:#122336;fill-opacity:1;fill-rule:nonzero;stroke:none"
         d="m 1556.69,1251.64 v 52.16 h 289.69 v -52.16 h -96.77 v -191.69 h -96.78 v 191.69 h -96.14" /><path
         id="path36"
         style="fill:#122336;fill-opacity:1;fill-rule:nonzero;stroke:none"
         d="m 2023.07,1162.23 h 79.3 l -45.58,79.25 z M 1862.62,1059.95 1986.86,1274 c 12.49,21.67 37.87,32.51 76.18,32.51 37.87,0 63.05,-10.84 75.54,-32.51 l 124.25,-214.05 h -101.15 l -30.59,52.83 h -136.74 l -30.59,-52.83 h -101.14" /><path
         id="path38"
         style="fill:#122336;fill-opacity:1;fill-rule:nonzero;stroke:none"
         d="m 2302.16,1119.56 v 184.24 h 96.77 v -180.17 c 0,-7.24 8.12,-10.85 24.35,-10.85 h 171.07 l -0.62,-52.83 h -179.19 c -5.83,0 -11.24,0.23 -16.23,0.68 -34.14,1.35 -58.69,6.66 -73.68,15.91 -14.98,9.26 -22.47,23.6 -22.47,43.02" /><path
         id="path40"
         style="fill:#122336;fill-opacity:1;fill-rule:nonzero;stroke:none"
         d="M 922.352,79.3086 V 50.0703 h 68.203 c 9.359,0.6016 14.045,3.6485 14.045,9.1289 v 10.5117 c 0,5.4805 -5.084,8.6797 -15.245,9.5977 z m 0,64.4024 V 114.93 h 68.609 c 9.629,0.609 14.439,3.5 14.439,8.679 v 10.973 c 0,3.039 -2.27,5.617 -6.818,7.758 -2.949,0.922 -5.488,1.371 -7.621,1.371 z m -62.188,35.18 h 149.246 c 28.62,0 46.55,-5.942 53.77,-17.821 2.4,-3.961 3.61,-10.359 3.61,-19.191 v -13.238 c 0,-15.84 -8.3,-26.352 -24.88,-31.5199 17.12,-4.2695 25.68,-14.0195 25.68,-29.2422 V 51.4414 c 0,-24.6719 -20.33,-37.0117 -60.99,-37.0117 H 860.164 V 178.891" /><path
         id="path42"
         style="fill:#122336;fill-opacity:1;fill-rule:nonzero;stroke:none"
         d="m 1061.97,178.891 h 71.01 l 54.57,-61.211 59.37,61.211 h 71.02 L 1220.85,78.3906 V 14.4297 h -62.19 v 63.9609 l -96.69,100.5004" /></g></g></svg>